<?xml version="1.0" encoding="UTF-8" standalone="no"?>
<!-- Created with Inkscape (http://www.inkscape.org/) -->

<svg
   width="19.08304mm"
   height="26.19375mm"
   viewBox="0 0 19.08304 26.19375"
   version="1.1"
   id="svg1"
   xml:space="preserve"
   xmlns:inkscape="http://www.inkscape.org/namespaces/inkscape"
   xmlns:sodipodi="http://sodipodi.sourceforge.net/DTD/sodipodi-0.dtd"
   xmlns="http://www.w3.org/2000/svg"
   xmlns:svg="http://www.w3.org/2000/svg"><sodipodi:namedview
     id="namedview1"
     pagecolor="#ffffff"
     bordercolor="#000000"
     borderopacity="0.25"
     inkscape:showpageshadow="2"
     inkscape:pageopacity="0.0"
     inkscape:pagecheckerboard="0"
     inkscape:deskcolor="#d1d1d1"
     inkscape:document-units="mm" /><defs
     id="defs1" /><g
     inkscape:label="Layer 1"
     inkscape:groupmode="layer"
     id="layer1"
     transform="translate(-263.48786,-136.39546)"><g
       id="g12"><path
         style="clip-rule:evenodd;fill-rule:evenodd;stroke-width:0.264583;image-rendering:optimizeQuality;shape-rendering:geometricPrecision;text-rendering:geometricPrecision"
         fill="#b8bcc2"
         d="m 268.53148,138.24753 c -0.17235,4.33078 0.004,8.56411 0.52916,12.7 -0.18758,0.23918 -0.45217,0.32737 -0.79375,0.26458 -0.0873,-4.36787 9.6e-4,-8.68941 0.26459,-12.96458 z"
         id="path2" /><path
         style="clip-rule:evenodd;fill-rule:evenodd;stroke-width:0.264583;image-rendering:optimizeQuality;shape-rendering:geometricPrecision;text-rendering:geometricPrecision"
         fill="#0c1420"
         d="m 273.02939,140.62878 c -0.0159,-0.14369 -0.10406,-0.23188 -0.26458,-0.26458 -0.26453,7.40624 -0.35271,14.81457 -0.26458,22.225 -0.44098,0 -0.88194,0 -1.32292,0 0,-4.23334 0,-8.46667 0,-12.7 -0.34158,-0.0628 -0.60616,0.0254 -0.79375,0.26458 -0.5752,0.0661 -1.01616,0.33065 -1.32292,0.79375 -0.52514,-4.13589 -0.70151,-8.36922 -0.52916,-12.7 1.08802,-0.67709 2.23454,-1.29445 3.43958,-1.85208 0.97015,0.52916 1.94027,1.05833 2.91042,1.5875 0.30734,1.22536 0.35144,2.46009 0.13229,3.70416 -0.64759,-0.38978 -1.30905,-0.74255 -1.98438,-1.05833 z"
         id="path3" /><path
         style="clip-rule:evenodd;fill-rule:evenodd;stroke-width:0.264583;image-rendering:optimizeQuality;shape-rendering:geometricPrecision;text-rendering:geometricPrecision"
         fill="#0f1723"
         d="m 278.32106,152.27045 c -0.0159,-0.1437 -0.10406,-0.23188 -0.26458,-0.26459 -0.26437,3.52338 -0.35256,7.05115 -0.26459,10.58334 -0.52916,0 -1.05833,0 -1.5875,0 -0.0441,-6.4388 0,-12.87698 0.1323,-19.31459 1.19163,0.77248 2.42636,1.47802 3.70416,2.11667 0.1764,2.73402 0.1764,5.46807 0,8.20208 -0.50966,-0.53945 -1.08294,-0.98041 -1.71979,-1.32291 z"
         id="path4" /><path
         style="clip-rule:evenodd;fill-rule:evenodd;stroke-width:0.264583;image-rendering:optimizeQuality;shape-rendering:geometricPrecision;text-rendering:geometricPrecision"
         fill="#878c94"
         d="m 273.02939,140.62878 c -0.17639,7.32015 -0.35276,14.64027 -0.52916,21.96042 -0.0881,-7.41043 5e-5,-14.81876 0.26458,-22.225 0.16052,0.0327 0.24871,0.12089 0.26458,0.26458 z"
         id="path5" /><path
         style="clip-rule:evenodd;fill-rule:evenodd;stroke-width:0.264583;image-rendering:optimizeQuality;shape-rendering:geometricPrecision;text-rendering:geometricPrecision"
         fill="#a4a9b0"
         d="m 270.38356,150.15378 c 0.18759,-0.23918 0.45217,-0.32737 0.79375,-0.26458 0,4.23333 0,8.46666 0,12.7 -0.0895,-4.19629 -0.35409,-8.34144 -0.79375,-12.43542 z"
         id="path6" /><path
         style="clip-rule:evenodd;fill-rule:evenodd;stroke-width:0.264583;image-rendering:optimizeQuality;shape-rendering:geometricPrecision;text-rendering:geometricPrecision"
         fill="#4a515b"
         d="m 266.94398,153.0642 c 0.18759,-0.23919 0.45217,-0.32737 0.79375,-0.26459 0.0869,3.31029 -10e-4,6.57358 -0.26459,9.78959 0.17087,-3.27554 -0.006,-6.45052 -0.52916,-9.525 z"
         id="path7" /><path
         style="clip-rule:evenodd;fill-rule:evenodd;stroke-width:0.264583;image-rendering:optimizeQuality;shape-rendering:geometricPrecision;text-rendering:geometricPrecision"
         fill="#555c65"
         d="m 278.32106,152.27045 c -0.1764,3.43958 -0.35277,6.87916 -0.52917,10.31875 -0.088,-3.53219 2.2e-4,-7.05996 0.26459,-10.58334 0.16052,0.0327 0.24871,0.12089 0.26458,0.26459 z"
         id="path8" /><path
         style="clip-rule:evenodd;fill-rule:evenodd;stroke-width:0.264583;image-rendering:optimizeQuality;shape-rendering:geometricPrecision;text-rendering:geometricPrecision"
         fill="#8f949d"
         d="m 281.49606,155.71003 c -0.26273,2.24473 -0.35094,4.53787 -0.26458,6.87917 -0.34973,-2.33945 -0.34973,-4.7207 0,-7.14375 0.16052,0.0327 0.24871,0.12089 0.26458,0.26458 z"
         id="path9" /><path
         style="clip-rule:evenodd;fill-rule:evenodd;stroke-width:0.264583;image-rendering:optimizeQuality;shape-rendering:geometricPrecision;text-rendering:geometricPrecision"
         fill="#0d1521"
         d="m 266.94398,153.0642 c 0.52364,3.07448 0.70003,6.24946 0.52916,9.525 -1.32291,0 -2.64583,0 -3.96875,0 -0.0441,-2.55905 6e-5,-5.11678 0.1323,-7.67292 1.05272,-0.72432 2.15513,-1.3417 3.30729,-1.85208 z"
         id="path10" /><path
         style="clip-rule:evenodd;fill-rule:evenodd;stroke-width:0.264583;image-rendering:optimizeQuality;shape-rendering:geometricPrecision;text-rendering:geometricPrecision"
         fill="#101723"
         d="m 281.49606,155.71003 c 0.31441,0.2285 0.62307,0.49308 0.92604,0.79375 0.13222,2.02645 0.17632,4.05501 0.13229,6.08542 -0.44098,0 -0.88193,0 -1.32291,0 -0.0864,-2.3413 0.002,-4.63444 0.26458,-6.87917 z"
         id="path11" /></g></g></svg>
