<svg xmlns="http://www.w3.org/2000/svg" xml:space="preserve" viewBox="0 0 87.1 29.4"><g fill-rule="evenodd" clip-rule="evenodd" image-rendering="optimizeQuality" shape-rendering="geometricPrecision" text-rendering="geometricPrecision"><path fill="#020202" d="M9.6 0C17-.5 21.9 2.8 24 10c.5 3.5-.2 6.8-2.1 9.8L12 29.4a63.9 63.9 0 0 1-4.8-5c-1.6-3.2-1-6 1.7-8.3 4.1-3 8.3-5.8 12.5-8.6.2-.3.3-.7.2-1-.9 0-1.7.1-2.6.3l-6 2.8a22 22 0 0 0-7.5-1.3c0 .3 0 .6.3 1 1.2.5 2.4 1.3 3.4 2.2l-9 4C-1 7.4 2 2.4 9.6 0z"/><path fill="#080808" d="M38.1 12.3v1h-2.6c-.3-1.5-1.2-2-2.6-1.4a3.8 3.8 0 0 0-.7 4.3c.7.8 1.5 1 2.5.7.6-.4.8-.8.8-1.5h2.6v.8a3.8 3.8 0 0 1-3.1 3c-4.7.4-6.7-1.7-6-6.4 1-2.8 3-3.9 6-3.3a4 4 0 0 1 3.1 2.8z"/><path fill="#0a0a0a" d="M42.6 9.6c-1 3.1-2.2 6.2-3.4 9.3 1 .3 2 .3 3 0l.2-1c1.2-.2 2.5 0 3.7.2.2.3.3.7.2 1h3.2l-3.2-9.5zm1.6 2.7c.6 1 1 2 1.4 3.1-.8.4-1.6.4-2.4 0l1-3.1z"/><path fill="#040404" d="M52.7 9.6h-1.9v9.5h3v-3.4c.5 0 1 0 1.4.3l1.5 2.9c1 .2 2 .3 3.1.2-.5-1.3-1-2.6-1.8-3.8 2.3-1.7 2.4-3.4.3-5.3a39 39 0 0 0-5.6-.4zm1.7 2.1c.7 0 1.3 0 2 .2.4.5.4 1 0 1.5-.9.2-1.8.2-2.6.2v-1.9h.6z"/><path fill="#050505" d="M61.7 9.6h2.9v9.5h-3V9.6z"/><path fill="#030303" d="m67 9.6 2.6.1c1.4 1.5 2.7 3 3.9 4.7l.1-4.8h2.6v9.5l-2.6-.1-3.8-4.4c-.2 1.5-.2 3-.2 4.5H67V9.6z"/><path fill="#060606" d="M77.8 9.6h9.3V12h-3.2v7H81v-7h-3.2V9.6z"/></g></svg>