<svg xmlns="http://www.w3.org/2000/svg" xml:space="preserve" viewBox="0 0 19.1 26.2"><g fill-rule="evenodd" clip-rule="evenodd" image-rendering="optimizeQuality" shape-rendering="geometricPrecision" text-rendering="geometricPrecision"><path fill="#b8bcc2" d="M5 1.9c-.1 4.3 0 8.5.6 12.7-.2.2-.5.3-.8.2-.1-4.4 0-8.7.2-13z"/><path fill="#0c1420" d="M9.5 4.2c0-.1 0-.2-.2-.2A467 467 0 0 0 9 26.2H7.7V13.5c-.4 0-.6 0-.8.3-.6 0-1 .3-1.3.8C5 10.4 4.9 6.2 5 1.9L8.5 0l2.9 1.6c.3 1.2.3 2.4.1 3.7-.6-.4-1.3-.8-2-1z"/><path fill="#0f1723" d="M14.8 15.9c0-.2 0-.3-.2-.3-.3 3.5-.4 7-.3 10.6h-1.6l.1-19.3c1.2.8 2.5 1.5 3.8 2.1v8.2c-.6-.5-1.1-1-1.8-1.3z"/><path fill="#878c94" d="m9.5 4.2-.5 22c0-7.4 0-14.8.3-22.2.1 0 .2 0 .2.2z"/><path fill="#a4a9b0" d="M6.9 13.8c.2-.3.4-.4.8-.3v12.7c-.1-4.2-.4-8.3-.8-12.4z"/><path fill="#4a515b" d="M3.5 16.7c.1-.3.4-.4.7-.3.1 3.3 0 6.6-.2 9.8.2-3.3 0-6.5-.5-9.5z"/><path fill="#555c65" d="m14.8 15.9-.5 10.3c0-3.5 0-7 .3-10.6.1 0 .2.1.2.3z"/><path fill="#8f949d" d="M18 19.3c-.3 2.3-.3 4.6-.3 6.9-.3-2.3-.3-4.7 0-7.2.2 0 .3.2.3.3z"/><path fill="#0d1521" d="M3.5 16.7c.5 3 .7 6.2.5 9.5H0l.1-7.7c1.1-.7 2.2-1.3 3.4-1.8z"/><path fill="#101723" d="m18 19.3 1 .8v6h-1.3c0-2.2 0-4.5.3-6.8z"/></g></svg>