<svg xmlns="http://www.w3.org/2000/svg" xml:space="preserve" viewBox="0 0 42.4 42.1"><g fill-rule="evenodd" clip-rule="evenodd" image-rendering="optimizeQuality" shape-rendering="geometricPrecision" text-rendering="geometricPrecision"><path fill="#bcc158" d="M12.4.3a45 45 0 0 1 4 2.4l2 2.3.1.7A23.1 23.1 0 0 0 15.7 16l.4-.5c0 1-.2 2-.5 3 0-1.5-.2-1.5-.4 0-.3 2-.4 4.1-.4 6.3v.2c-.4.5-1 .9-1.6 1.1-.3-1.1-.5-2.4-.5-3.7-.2-2.3.2-4.5 1-6.6l1.4-2.1c.7-.5.6-.8-.3-.8.3-.9.4-1.8.4-2.7-.2-.3-.5-.3-.8 0-.1.5-.2 1-.1 1.6a25 25 0 0 0-2 4.2l-.3-2.6-.2 4c-.2-2.3-.2-4.6.1-7 .2.8.4 1.6.4 2.5.3-2 .8-4 1.5-6 0-.7-.3-.8-.8-.1-.2.2-.3.5-.3.8-.5-.8-.7-1.7-.5-2.7-.4 0-.6 0-.8.3-.3.5-.4 1-.3 1.6a41.9 41.9 0 0 1-1 9c-.6-2-.9-4-.8-6.1-.9 0-1.6-.2-2.2-.8-.3.2-.6.3-1 .3.4 1.5 1 2.9 1.8 4.2v.5c.6 2.3 1.3 4.5 2.2 6.6v5.9H8.5a5 5 0 0 0-1.9-1l-2.8-3a100 100 0 0 0-2.2-4L1 17C0 13 .5 9 2 5.3A8.4 8.4 0 0 1 10.2 0c.8 0 1.5.1 2.1.3z"/><path fill="#8a8c4a" d="M12.4.3c1.7.3 3 1 4 2.4a45 45 0 0 0-4-2.4z"/><path fill="#a0a097" d="M7.1.5c-2.3.9-4 2.5-5 4.8H2A6.7 6.7 0 0 1 7 .5z"/><path fill="#b6a99e" d="M25.4 5a4.1 4.1 0 0 0-4.2-1.4l-2.1 2-.3-.6c.8-.4 1.5-1 2.1-1.7 2-.9 3.6-.3 4.5 1.7z"/><path fill="#e17626" d="M25.4 5c.2.8.5 1.4 1 1.9 0 .3 0 .6.3.8.2.8.4 1.5.8 2.1v.3c1 3.4 1.5 7 1.6 10.5v6.1a7.9 7.9 0 0 1-6.3 6.4v-2.7l5.2-4c-.9.3-1.7.8-2.6 1.5-.3.3-.7.4-1 .3a36 36 0 0 0 3.5-3.3c.2-.4.2-.7 0-1a71 71 0 0 0-5 5.2c-.2-.8-.2-1.6 0-2.4 1.4-1.3 3-2.4 4.6-3.4a2 2 0 0 0-1.3-.1l1.2-1c.2-.2.1-.4-.1-.5a17 17 0 0 1-2.6 2.1c0-.3 0-.5.2-.8 1-.9 1.8-2 2.4-3.1l-.2-.6c-.4.4-.8.8-1 1.3l-.4-.5c-.4.4-.8.6-1.4.5l3.5-3.1-.3-.3-2.8 2.1v-.2c.7-1 1.5-1.8 2.4-2.7.4-.5.5-1 .3-1.6l-4.5 5.3c-.2-2.1.7-3.5 2.8-4.2.2-.6.4-1.2.8-1.7 0-.5-.3-.5-.6-.2l-.4-.8c-.4.7-.6 1.4-.8 2.2l-1.8 2a8 8 0 0 1 0-2.8c.8-.3 1.4-.8 2-1.4h-1l1.8-2.2-.2-.4-1 1a8 8 0 0 1 .8-1.8V8.5a22 22 0 0 1-2.5 4V7.8c0-.4 0-.8-.2-1.3-.5-.3-.6-.3-.4.2l-.4 4-1.4-3.4-.3.3c.4.7.6 1.4.7 2.1-1-1.4-1.1-1.3-.4.3l-.6.2a5 5 0 0 0 1.8 1.6c.1.9 0 1.7-.4 2.4a20445.2 20445.2 0 0 1-.6-2.4l-.4.8-1.7-1.8c-.2.3-.2.6.2 1l1.4 1.6.5.8v.5l-2.3-2a2 2 0 0 0-.8.4c1.3.6 2.4 1.4 3.4 2.4l.7.8c.1 1 .1 2.1 0 3.2a9 9 0 0 1-2.3-4.5l-.4 1.3c-.2-.5-.6-1-1-1.3l-.2.5c.5.6.6 1.2.6 1.9 2 1.3 3.1 3.1 3.3 5.5l-4.7-6c-.3.3-.3.6-.1 1l3.3 3.8c-.2.2-.3.2-.5 0-.8-.9-1.7-1.7-2.7-2.3-.2-.2-.4-.2-.5 0 1 1.3 2.2 2.4 3.4 3.4a2 2 0 0 1-1.3-.4c-.3.2-.3.4 0 .7l2.8 1.1c0 .6 0 1.1-.3 1.6-1.5-.8-2.7-2-3.5-3.5-.7.2-.7.5 0 1a2 2 0 0 1-1.4-.6l-.2.4c.2.4.6.8 1 1a1 1 0 0 0-.2.4c.9.5 1.9 1 2.9 1.2 1.3 1 1.8 2.2 1.4 3.8L16.1 25c-.2.2-.3.5 0 .8 1.2 1.3 2.6 2.5 4 3.5a11 11 0 0 1-3.7-2c-.3-.3-.6-.2-.8 0 1.7 1.4 3.5 2.6 5.3 3.8.3.7.4 1.5.3 2.3-.6 0-1.1 0-1.6-.2a2 2 0 0 0-1.3-1 .9.9 0 0 0-.6-.6 3 3 0 0 0-1-1c0-.5-.2-.7-.6-.9 0-.4-.2-.8-.5-1l-.3-1.6c0-2.4.2-4.8.3-7.1v-1.4c.3-.9.5-1.9.5-2.9v-.2a46.2 46.2 0 0 1 3-9.8l2-2a4 4 0 0 1 4.3 1.4z"/><path fill="#958980" d="M25.4 5a3 3 0 0 1 1 1.9c-.5-.5-.8-1.1-1-1.9z"/><path fill="#838434" d="M31.2 5.8a9.6 9.6 0 0 1 10.2 5.8 27 27 0 0 1-1 10.6L39 24.6l-2 2.1c-.6.8-1.4 1.3-2.3 1.6 0-2.3.3-4.6.8-6.9l1.5-1.2c-.3-.1-.3-.3 0-.5.7 0 1.3-.2 1.9-.5a1 1 0 0 0-1.2.1c0-.5.1-1 .4-1.4 0-.2-.2-.3-.3-.4L37 19c-.2.2-.4.3-.7.2-.1-.5 0-.9.5-1.2-.3-.1-.5 0-.7.2.2-1.7.6-3.3 1.3-4.8.2-.4.2-.7 0-1L36 15.3c0-.5-.2-1-.4-1.4-.3 2-.7 4.1-1.2 6.1a7 7 0 0 1 1-7.3c-.4-.4-.6-.9-.7-1.4-.2.6-.5.6-.8 0 .2 1.1.2 2.3-.3 3.4 0-.3-.2-.6-.4-.8v-3.4c0-.2-.2-.4-.4-.5l-.2 3.4-1.3-2.1-.2.2a11 11 0 0 1 1.3 8.3 27 27 0 0 1-2.2-5.9c0 .3-.2.6-.3.8-.3-.6-.5-1.3-.5-2 0-.3-.2-.5-.4-.6-.2.3-.5.3-.7 0-.2-.8-.5-1.5-.9-2.1v-.3c0-.5 0-1-.2-1.3l1.8-2a5 5 0 0 1 2.1-.6z"/><path fill="#737535" d="M16.4 2.7c1 .5 1.9 1.3 2.4 2.3l.3.6a46.2 46.2 0 0 0-3 9.8v.2l-.4.5c.1-3.7 1-7.1 2.8-10.4l-.1-.7-2-2.3z"/><path fill="#707132" d="M12.7 7.7c-.4.5-.7 1.2-1 1.8l-.3-4.2c.2-.2.4-.3.8-.3-.2 1 0 2 .5 2.7z"/><path fill="#717232" d="m12 10.6 1.2-3.3c0-.2 0-.4-.2-.4.5-.7.7-.6.8.1-.7 2-1.2 4-1.5 6 0-.9-.2-1.7-.4-2.4z"/><path fill="#545028" d="m29.1 6.4-1.8 2c.2.5.3 1 .2 1.4-.4-.6-.6-1.3-.8-2.1l.4.2c.6-.6 1.2-1.2 2-1.5z"/><path fill="#784818" d="M21 13.2c-.4 0-.7 0-.9.3l-1.4-1.6c-.4-.4-.4-.7-.2-1l1.7 1.8.4-.8c.3.4.4.9.3 1.3z"/><path fill="#5e4f1f" d="M11.1 6.9c.3 1.9.4 3.8.1 5.8-.1.6-.3 1.1-.6 1.6.4-2.5.6-5 .5-7.4z"/><path fill="#5e5c28" d="m15 13.8-.3-.6-.8 1-.1-.2c.3-.6.5-1.3.5-2l.1-1.7c.3-.3.6-.3.8 0a8 8 0 0 1-.4 2.7c1 0 1 .3.3.8z"/><path fill="#6d4718" d="M22.8 8c-.3 1.7-.4 3.6-.4 5.5L22 13a9 9 0 0 1-.4 2 2 2 0 0 1-.5-.7c.4-.7.5-1.5.4-2.4a5 5 0 0 1-1.8-1.6l.6-.2c-.7-1.6-.6-1.7.4-.3 0-.7-.3-1.4-.7-2.1l.3-.3 1.4 3.5c0-1.4.2-2.8.4-4.1-.2-.5 0-.5.4-.2.2.5.2.9.2 1.3z"/><path fill="#2d230e" d="M9 14.3v.8l-.1.3c-.2-.6-.5-1-1-1.4v-.5l.4-1.9.7 2.7z"/><path fill="#623b13" d="M23.8 13.2a1 1 0 0 0-1 .6v-1.4a22 22 0 0 0 2.5-4v1.4a8 8 0 0 0-.8 1.8l1-1 .2.4-1.9 2.2z"/><path fill="#b2b2ae" d="M1.9 5.3H2a18 18 0 0 0-1 11.6l-.8-1.3C0 13.8-.1 12 0 10.1c.4-1.3.8-2.7 1-4 .2-.4.4-.7.8-.8z"/><path fill="#9fa047" d="M9.8 17.2 9 15.1v-.8l.1-.5 1 3.1c0 .2-.2.3-.3.3z"/><path fill="#744818" d="M20.6 14.3c.5.4.6.8.3 1.3-1-1-2.1-1.8-3.4-2.4.2-.2.4-.4.8-.5l2.2 2.1c.1-.1.2-.3.1-.5z"/><path fill="#161206" d="M33.3 10.6V14c-.3.6-.3-.6 0-3.4z"/><path fill="#bbb650" d="M16.7 12.7a7 7 0 0 1-.6 2.7c0-1 .2-1.9.6-2.7z"/><path fill="#302c13" d="m27.5 10 1 2.2c.1.3.4.3.6 0l.4.5c0 .8.2 1.5.5 2.1l.3-.8c.5 2 1.3 4 2.2 5.9.2.3.2.7.2 1l-1.2-2.4a.8.8 0 0 0-.8-.2c-.9-.4-1-1-.3-1.5L29 14c0 1.8.2 3.6.5 5.3.2 2 .2 4-.1 5.8 0-1.5 0-3-.3-4.5-.1-3.5-.7-7-1.6-10.5z"/><path fill="#a6a699" d="M40.5 22.2c1-3.4 1.3-7 1-10.6a9.6 9.6 0 0 0-10.3-5.8c1.8-.7 3.5-.6 5.3.2 5.3 2.9 7 7.2 5.2 13a9.8 9.8 0 0 1-1.2 3.2z"/><path fill="#4f411a" d="m11.4 5.3.4 4.2a6 6 0 0 1 .9-1.8c0-.3.1-.6.3-.8l.2.4c-.5 1-1 2.2-1.3 3.3-.3 2.3-.3 4.6-.1 6.9l.2-4 .3 2.6a25 25 0 0 1 2-4.2c0 .8-.2 1.5-.5 2.1v.3l.9-1c.2 0 .3.3.4.5l-1.3 2a.9.9 0 0 1-.4-.4c-1.6 3.6-2 7.4-1.2 11.3 0 .9 0 1.6.2 2.4 0 3 .2 6.1.6 9.1l-.2 2.3-.9.5c-.5 0-1 0-1.4-.2A155.1 155.1 0 0 0 10 22v-1.4c.3 1 .6 2 .6 3.2.2 5.4.2 10.8-.1 16.2l.3.2c.2-.3.3-.7.3-1 .2-5.2.2-10.3 0-15.4-.2-2.2-.7-4.4-1.4-6.6l.3-.3-1-3.1-.1.5-.7-2.7a14 14 0 0 0-.4 1.9C7 12.2 6.4 10.8 6 9.3c.4 0 .7-.1 1-.3.6.6 1.3.9 2.2.8 0 2 .2 4.1.9 6l.4-1.5c.3-.5.5-1 .6-1.6.3-2 .2-4 0-5.8-.2-.6 0-1.1.2-1.6z"/><path fill="#a0a349" d="M6.9 9.8c.1-.3.3-.3.5 0 .3.4.3.9.1 1.3L7 9.8z"/><path fill="#4b3c19" d="M33.3 10.6c-.3 2.8-.3 4 0 3.4.2.2.4.5.4.8.5-1.1.5-2.3.3-3.4.3.6.6.6.8 0 .1.5.3 1 .7 1.4a7 7 0 0 0-1 7.3c.5-2 1-4 1.2-6 .2.3.4.8.4 1.3l1.2-3c.3.4.3.7.1 1.1-.7 1.5-1.1 3.1-1.3 4.8.2-.3.4-.3.7-.2-.4.3-.6.7-.5 1.2.3 0 .5 0 .7-.2l.8-1.6.3.4a3 3 0 0 0-.4 1.4 1 1 0 0 1 1.2-.1c-.6.3-1.2.5-1.9.5-.3.2-.3.4 0 .5l-1.5 1.2a38 38 0 0 0-.8 7V40c-.7.2-1.4.3-2.2.2-.3-3.9-.3-7.9 0-11.9V22l-1.8-3.7c.3-.1.6 0 .8.2l1.2 2.4c0-.3 0-.7-.2-1 .7-3 .2-5.7-1.3-8.3l.2-.2 1.3 2.1.2-3.4c.2.1.4.3.4.5z"/><path fill="#848534" d="m30.7 18.3 1.7 3.7c.1 2 .2 3.8.1 5.8-1.8 0-2.8-1-3.1-2.7.3-1.9.3-3.8.1-5.8-.3-1.7-.5-3.5-.5-5.3l1.4 2.8c-.6.6-.6 1 .3 1.5z"/><path fill="#5e5e5d" d="m1 17 .6 1.5v.6a8.7 8.7 0 0 1-1.3-3.5L1 17z"/><path fill="#87883d" d="M13.8 15.9c-1 2-1.3 4.3-1.1 6.6 0 1.3.2 2.6.5 3.7 0 .2 0 .3-.2.3l-.8.2c-.8-3.9-.4-7.7 1.2-11.3 0 .2.2.4.4.5z"/><path fill="#6a4116" d="M24.9 23c0-.2 0-.4-.3-.5l1-1.3c-.4-.2-.8-.1-1.3.2-.6-.2-.6-.5 0-.8.6 0 1-.1 1.4-.5l.4.5c.2-.5.6-1 1-1.3l.2.6c-.6 1.2-1.4 2.2-2.4 3.1z"/><path fill="#464921" d="M15.6 18.5V20a22 22 0 0 0-.5 5h-.3c0-2.2.1-4.3.4-6.4.2-1.4.4-1.4.4 0z"/><path fill="#dc7324" d="M24.6 22.5c-.5.8-1 1.6-1.7 2.4-.2-1-.2-2.1 0-3.2.4-.2 1-.3 1.4-.3.5-.3 1-.4 1.4-.2l-1 1.3z"/><path fill="#523a16" d="M22.8 8v5.7a1 1 0 0 1 1-.6h1c-.5.6-1.1 1-2 1.4a8 8 0 0 0 0 2.9l2-2.1c0-.8.3-1.5.7-2.2l.4.8c.3-.3.5-.3.6.2-.4.5-.6 1-.8 1.7-2.1.7-3 2-2.8 4.2l4.5-5.3c.2.6 0 1.1-.3 1.6L24.6 19l.1.2 2.8-2.1.3.3-3.5 3.1c-.6.3-.6.6 0 .8-.5 0-1 0-1.4.3-.2 1-.2 2.1 0 3.2a22 22 0 0 0 1.7-2.4c.2 0 .3.3.3.5-.2.3-.3.5-.2.8 1-.6 1.8-1.3 2.6-2.1.2.1.3.3 0 .5l-1.1 1c.5-.2.9-.1 1.3 0a31 31 0 0 0-4.6 3.5c-.2.8-.2 1.6 0 2.4a71 71 0 0 1 5-5.3c.2.4.2.7 0 1a31.5 31.5 0 0 1-3.6 3.4c.4 0 .8 0 1.1-.3.9-.7 1.7-1.2 2.6-1.4l-5.1 4c-.1.8-.2 1.7-.1 2.6v9c-.6 0-1 0-1.5-.3-.1-2.8-.2-5.6-.1-8.5 0-.8 0-1.6-.3-2.3a54.1 54.1 0 0 1-5.3-3.7c.2-.3.5-.4.8-.2a11 11 0 0 0 3.7 2.1c-1.4-1-2.8-2.2-4-3.5-.3-.3-.2-.6 0-.8l5 4.7c.3-1.6-.2-2.8-1.5-3.8l-3-1.2.3-.4c-.4-.2-.8-.6-1-1l.2-.4c.4.4.9.6 1.4.6-.7-.5-.7-.8 0-1 .8 1.5 2 2.7 3.5 3.5.2-.5.3-1 .3-1.6l-2.8-1.1c-.3-.3-.3-.5 0-.7.4.3.9.4 1.3.4-1.2-1-2.4-2-3.4-3.3.1-.3.3-.3.5-.1 1 .6 1.9 1.4 2.7 2.3.2.2.3.2.5 0L16.8 18c-.2-.4-.2-.7.1-1l4.7 6a6.7 6.7 0 0 0-3.3-5.5c0-.7-.1-1.3-.6-1.9l.2-.5c.4.4.8.8 1 1.3 0-.5.2-.9.4-1.3a9 9 0 0 0 2.3 4.5c.1-1 .1-2.1 0-3.2l-.7-.8c.3-.5.2-1-.3-1.3l-.5-.8c.2-.2.5-.3.8-.3 0 .4.2.7.3 1 0 .4.3.7.5.9a9 9 0 0 0 .4-2.1l.3.5c0-1.9.1-3.8.4-5.6z"/><path fill="#8f8f89" d="M1.6 18.5a100 100 0 0 1 2.2 4c1 1 2 1.9 2.8 3a11.7 11.7 0 0 1-5-6.4v-.6z"/><path fill="#c28a3c" d="m15.6 19.9-.3 7a22 22 0 0 1 .3-7.1z"/><path fill="#867e78" d="M14.8 24.9h.3a40398.3 40398.3 0 0 1 .5 3.7 5 5 0 0 1-.8-3.5V25z"/><path fill="#88887c" d="m6.6 25.4 1.9 1a2 2 0 0 1-1.9-1z"/><path fill="#b9b8ad" d="M40.5 22.2c-.5 2-1.6 3.6-3.5 4.5l2-2 1.5-2.5z"/><path fill="#8b8842" d="M10 22c.3 1.5.4 3 .3 4.7-.7.1-1.3 0-1.8-.2H10V22z"/><path fill="#615327" d="M29.1 20.6c.3 1.5.4 3 .3 4.5.3 1.8 1.3 2.6 3.1 2.7v.5c-.5 0-1-.2-1.5-.4l-2-1.2v-6z"/><path fill="#3c2e11" d="M8 14c.4.4.7.8.9 1.4L9 15l.8 2.1c.7 2.2 1.2 4.4 1.4 6.6.2 5.1.2 10.2 0 15.4 0 .3-.1.7-.3 1l-.3-.2c.3-5.4.3-10.8.1-16.2 0-1.1-.3-2.2-.6-3.2-.9-2-1.6-4.3-2.2-6.6z"/><path fill="#79614f" d="M15.6 28.6c.3.2.5.6.5 1-.4-.2-.6-.5-.5-1z"/><path fill="#8f7766" d="M16.1 29.6c.4.2.6.4.6.8-.4 0-.6-.4-.6-.8z"/><path fill="#6e6056" d="m16.7 30.4 1 1c-.6 0-1-.3-1-1z"/><path fill="#896145" d="M18.3 32c.6.2 1 .5 1.3 1a2 2 0 0 1-1.3-1z"/><path fill="#adadab" d="M13 26.5c0 2.7 0 5.4.2 8.2a329.1 329.1 0 0 0-1-8c.3 0 .5 0 .8-.2z"/><path fill="#e2e1e0" d="m12.4 29.1.8 5.6c.6 2 .7 4.1.3 6.3-.6.3-1.1.3-1.6 0l1-.5v-2.3c-.3-3-.5-6-.5-9z"/><path fill="#88847d" d="M34.7 40c0 .5-.3.7-.8.8a3 3 0 0 1-1.4-.6c.8 0 1.5 0 2.2-.2z"/></g></svg>