<?xml version="1.0" encoding="UTF-8" standalone="no"?>
<!-- Created with Inkscape (http://www.inkscape.org/) -->

<svg
   width="24.152176mm"
   height="29.449471mm"
   viewBox="0 0 24.152176 29.449471"
   version="1.1"
   id="svg1"
   xml:space="preserve"
   inkscape:export-filename="logor.svg"
   inkscape:export-xdpi="96"
   inkscape:export-ydpi="96"
   xmlns:inkscape="http://www.inkscape.org/namespaces/inkscape"
   xmlns:sodipodi="http://sodipodi.sourceforge.net/DTD/sodipodi-0.dtd"
   xmlns="http://www.w3.org/2000/svg"
   xmlns:svg="http://www.w3.org/2000/svg"><sodipodi:namedview
     id="namedview1"
     pagecolor="#ffffff"
     bordercolor="#000000"
     borderopacity="0.25"
     inkscape:showpageshadow="2"
     inkscape:pageopacity="0.0"
     inkscape:pagecheckerboard="0"
     inkscape:deskcolor="#d1d1d1"
     inkscape:document-units="mm" /><defs
     id="defs1" /><g
     inkscape:label="Layer 1"
     inkscape:groupmode="layer"
     id="layer1"
     transform="translate(-236.08295,-132.48516)"><path
       style="clip-rule:evenodd;fill-rule:evenodd;stroke-width:0.264583;image-rendering:optimizeQuality;shape-rendering:geometricPrecision;text-rendering:geometricPrecision"
       fill="#020202"
       d="m 245.65334,132.56589 c 7.50253,-0.64889 12.30914,2.61429 14.4198,9.78958 0.51302,3.54058 -0.19262,6.80376 -2.11667,9.78958 -3.26319,3.26311 -6.5264,6.52648 -9.78958,9.78959 -1.68421,-1.5957 -3.27171,-3.27131 -4.7625,-5.02709 -1.62666,-3.23812 -1.05339,-6.01625 1.71979,-8.33437 4.10871,-2.91793 8.25383,-5.78424 12.43541,-8.59896 0.24572,-0.31454 0.33391,-0.66733 0.26459,-1.05833 -0.89265,0.0461 -1.77462,0.17843 -2.64584,0.39687 -2.0298,0.92679 -4.05828,1.85283 -6.08541,2.77813 -2.38617,-0.88281 -4.85561,-1.32377 -7.40834,-1.32292 -0.045,0.34981 0.0432,0.65847 0.26459,0.92604 1.24666,0.62159 2.39321,1.37123 3.43958,2.24896 -2.99601,1.32231 -5.99464,2.64523 -8.99583,3.96875 -1.35492,-7.88334 1.73188,-12.99863 9.26041,-15.34583 z"
       id="path2" /></g></svg>
