<?xml version="1.0" encoding="UTF-8" standalone="no"?>
<!-- Created with Inkscape (http://www.inkscape.org/) -->

<svg
   width="42.363304mm"
   height="42.094929mm"
   viewBox="0 0 42.363304 42.094929"
   version="1.1"
   id="svg1"
   xml:space="preserve"
   xmlns:inkscape="http://www.inkscape.org/namespaces/inkscape"
   xmlns:sodipodi="http://sodipodi.sourceforge.net/DTD/sodipodi-0.dtd"
   xmlns="http://www.w3.org/2000/svg"
   xmlns:svg="http://www.w3.org/2000/svg"><sodipodi:namedview
     id="namedview1"
     pagecolor="#ffffff"
     bordercolor="#000000"
     borderopacity="0.25"
     inkscape:showpageshadow="2"
     inkscape:pageopacity="0.0"
     inkscape:pagecheckerboard="0"
     inkscape:deskcolor="#d1d1d1"
     inkscape:document-units="mm" /><defs
     id="defs1" /><g
     inkscape:label="Layer 1"
     inkscape:groupmode="layer"
     id="layer1"
     transform="translate(-281.00501,-122.22554)"><g
       id="g51"><path
         style="clip-rule:evenodd;fill-rule:evenodd;stroke-width:0.264583;image-rendering:optimizeQuality;shape-rendering:geometricPrecision;text-rendering:geometricPrecision"
         fill="#bcc158"
         d="m 293.44362,122.49651 c 1.36464,0.72634 2.68756,1.52009 3.96875,2.38125 0.6517,0.75631 1.31315,1.55006 1.98438,2.38125 0.0441,0.22048 0.0882,0.44098 0.13229,0.66146 -1.75136,3.26176 -2.6774,6.74545 -2.77813,10.45104 0.0737,-0.2423 0.20595,-0.4187 0.39688,-0.52917 -0.0386,1.02857 -0.215,1.99872 -0.52917,2.91042 -0.0482,-1.40062 -0.1805,-1.40062 -0.39687,0 -0.30801,2.10569 -0.4403,4.22235 -0.39688,6.35 0,0.0881 0,0.17648 0,0.26458 -0.45717,0.45668 -0.98634,0.80937 -1.5875,1.05834 -0.35099,-1.13321 -0.52739,-2.36776 -0.52917,-3.70417 -0.19367,-2.31055 0.15913,-4.5154 1.05834,-6.61458 0.44098,-0.70557 0.88193,-1.4111 1.32291,-2.11667 0.75095,-0.47781 0.66273,-0.74239 -0.26458,-0.79375 0.27715,-0.87024 0.40944,-1.75218 0.39688,-2.64583 -0.26459,-0.35277 -0.52917,-0.35277 -0.79375,0 -0.1311,0.52194 -0.17518,1.05111 -0.1323,1.5875 -0.78351,1.32755 -1.44496,2.73865 -1.98437,4.23333 -0.0882,-0.88193 -0.1764,-1.7639 -0.26458,-2.64583 -0.0882,1.32291 -0.1764,2.64583 -0.26459,3.96875 -0.17814,-2.29907 -0.13406,-4.59211 0.13229,-6.87917 0.21683,0.74226 0.34912,1.53601 0.39688,2.38125 0.26765,-2.03766 0.75274,-4.02204 1.45521,-5.95312 -0.0451,-0.73131 -0.30967,-0.77539 -0.79375,-0.1323 -0.16134,0.23575 -0.24953,0.50033 -0.26459,0.79375 -0.50331,-0.7507 -0.67971,-1.63266 -0.52916,-2.64583 -0.34158,-0.0628 -0.60616,0.0254 -0.79375,0.26458 -0.25437,0.46689 -0.34256,0.99606 -0.26459,1.5875 0.043,2.48751 -0.1334,4.95695 -0.52916,7.40834 -0.0495,0.54618 -0.18177,1.07534 -0.39688,1.5875 -0.65272,-1.97604 -0.96139,-4.00452 -0.92604,-6.08542 -0.85873,0.0966 -1.56429,-0.16804 -2.11667,-0.79375 -0.32707,0.19733 -0.67984,0.28554 -1.05833,0.26458 0.41569,1.51596 1.03304,2.92709 1.85208,4.23334 0,0.1764 0,0.35277 0,0.52916 0.58817,2.27193 1.29371,4.47681 2.11667,6.61459 0,0.44098 0,0.88193 0,1.32291 0,1.4994 0,2.99853 0,4.49792 -0.52917,0 -1.05833,0 -1.5875,0 -0.57219,-0.41883 -1.18954,-0.77152 -1.85208,-1.05833 -0.87209,-1.00489 -1.79814,-1.97485 -2.77813,-2.91042 -0.72734,-1.35387 -1.47698,-2.67679 -2.24896,-3.96875 -0.17639,-0.52917 -0.35276,-1.05833 -0.52916,-1.5875 -0.93657,-4.0237 -0.5838,-7.90427 1.05833,-11.64167 0.99341,-2.31655 2.66912,-3.90405 5.02708,-4.7625 0.98497,-0.396 2.0433,-0.57237 3.175,-0.52916 0.75552,6.6e-4 1.46106,0.0889 2.11667,0.26458 z"
         id="path2" /><path
         style="clip-rule:evenodd;fill-rule:evenodd;stroke-width:0.264583;image-rendering:optimizeQuality;shape-rendering:geometricPrecision;text-rendering:geometricPrecision"
         fill="#8a8c4a"
         d="m 293.44362,122.49651 c 1.62071,0.32417 2.94362,1.11792 3.96875,2.38125 -1.28119,-0.86116 -2.60411,-1.65491 -3.96875,-2.38125 z"
         id="path3" /><path
         style="clip-rule:evenodd;fill-rule:evenodd;stroke-width:0.264583;image-rendering:optimizeQuality;shape-rendering:geometricPrecision;text-rendering:geometricPrecision"
         fill="#a0a097"
         d="m 288.15195,122.76109 c -2.35796,0.85845 -4.03367,2.44595 -5.02708,4.7625 -0.0882,0 -0.1764,0 -0.26458,0 0.85923,-2.6245 2.6231,-4.212 5.29166,-4.7625 z"
         id="path4" /><path
         style="clip-rule:evenodd;fill-rule:evenodd;stroke-width:0.264583;image-rendering:optimizeQuality;shape-rendering:geometricPrecision;text-rendering:geometricPrecision"
         fill="#b6a99e"
         d="m 306.4082,127.25901 c -1.12209,-1.30998 -2.53312,-1.79504 -4.23333,-1.45521 -0.67103,0.7157 -1.3766,1.37716 -2.11667,1.98438 -0.0882,-0.1764 -0.17639,-0.35277 -0.26458,-0.52917 0.81037,-0.41042 1.51593,-0.98369 2.11667,-1.71979 2.08253,-0.89763 3.58193,-0.32435 4.49791,1.71979 z"
         id="path5" /><path
         style="clip-rule:evenodd;fill-rule:evenodd;stroke-width:0.264583;image-rendering:optimizeQuality;shape-rendering:geometricPrecision;text-rendering:geometricPrecision"
         fill="#e17626"
         d="m 306.4082,127.25901 c 0.1532,0.74906 0.50589,1.36642 1.05834,1.85208 -0.0627,0.34158 0.0254,0.60617 0.26458,0.79375 0.127,0.77873 0.39158,1.48426 0.79375,2.11667 0,0.0882 0,0.1764 0,0.26458 0.93001,3.46433 1.45918,6.99212 1.5875,10.58334 0,2.02848 0,4.05685 0,6.08541 -0.7747,3.42054 -2.89137,5.5372 -6.35,6.35 -0.0436,-0.88635 5.3e-4,-1.76821 0.13229,-2.64583 1.70604,-1.35784 3.42583,-2.68076 5.15938,-3.96875 -0.90382,0.23522 -1.78567,0.7202 -2.64584,1.45521 -0.33311,0.25982 -0.6858,0.34793 -1.05833,0.26458 1.27027,-1.00515 2.46089,-2.10767 3.57188,-3.30729 0.17647,-0.35269 0.17647,-0.70564 0,-1.05833 -1.77245,1.68381 -3.44805,3.44778 -5.02709,5.29166 -0.17647,-0.79375 -0.17647,-1.5875 0,-2.38125 1.42531,-1.30783 2.96889,-2.45427 4.63021,-3.43958 -0.42545,-0.19635 -0.86651,-0.24043 -1.32292,-0.13229 0.42069,-0.2767 0.81757,-0.58539 1.19063,-0.92604 0.18203,-0.22006 0.13785,-0.39645 -0.13229,-0.52917 -0.79904,0.75528 -1.63698,1.46085 -2.51354,2.11667 -0.12436,-0.28496 -0.0802,-0.54949 0.13229,-0.79375 0.99139,-0.90411 1.78514,-1.96244 2.38125,-3.175 -0.0442,-0.1764 -0.0881,-0.35277 -0.13229,-0.52917 -0.45323,0.36465 -0.80619,0.8056 -1.05834,1.32292 -0.0815,-0.21381 -0.21378,-0.39018 -0.39687,-0.52917 -0.35719,0.38367 -0.79799,0.56007 -1.32292,0.52917 1.14115,-1.05254 2.28759,-2.11087 3.43958,-3.175 -0.0881,-0.0882 -0.17647,-0.1764 -0.26458,-0.26459 -0.96361,0.65482 -1.88965,1.36036 -2.77812,2.11667 -0.0442,-0.0882 -0.0881,-0.1764 -0.1323,-0.26458 0.78952,-0.92197 1.62746,-1.80393 2.51355,-2.64584 0.34422,-0.49334 0.43259,-1.0225 0.26458,-1.5875 -1.49939,1.7639 -2.99852,3.52777 -4.49792,5.29167 -0.22119,-2.12336 0.70485,-3.53449 2.77813,-4.23333 0.20584,-0.60841 0.47043,-1.18168 0.79375,-1.71979 -0.0386,-0.45697 -0.21511,-0.50107 -0.52917,-0.1323 -0.1987,-0.23177 -0.33099,-0.49635 -0.39687,-0.79375 -0.41328,0.65017 -0.67787,1.35573 -0.79375,2.11667 -0.61728,0.70557 -1.23481,1.4111 -1.85209,2.11667 -0.17647,-0.97015 -0.17647,-1.94027 0,-2.91042 0.78873,-0.27403 1.45018,-0.71498 1.98438,-1.32292 -0.32068,0.11383 -0.67337,0.11383 -1.05834,0 0.65697,-0.70249 1.27424,-1.45213 1.85209,-2.24895 -0.0442,-0.1323 -0.0881,-0.26459 -0.13229,-0.39688 -0.35269,0.35277 -0.70565,0.70557 -1.05834,1.05833 0.16987,-0.61044 0.43445,-1.22779 0.79375,-1.85208 0.17648,-0.44098 0.17648,-0.88193 0,-1.32292 -0.71966,1.44905 -1.5576,2.77197 -2.51354,3.96875 0,-1.49931 0,-2.9986 0,-4.49791 0.0423,-0.44958 -0.002,-0.89056 -0.13229,-1.32292 -0.48683,-0.35271 -0.61913,-0.30863 -0.39688,0.13229 -0.21351,1.34488 -0.34581,2.7119 -0.39687,4.10104 -0.40825,-1.18149 -0.89342,-2.32801 -1.45521,-3.43958 -0.0882,0.0882 -0.1764,0.1764 -0.26458,0.26458 0.41542,0.67136 0.6359,1.3769 0.66146,2.11667 -0.96946,-1.41518 -1.10176,-1.32696 -0.39688,0.26458 -0.1764,0.0882 -0.35277,0.1764 -0.52917,0.26459 0.44718,0.66773 1.02045,1.19689 1.7198,1.5875 0.1524,0.86558 0.0201,1.65933 -0.39688,2.38125 -0.0882,-0.35277 -0.1764,-0.70557 -0.26458,-1.05834 0.0755,-0.47307 -0.0127,-0.91405 -0.26459,-1.32291 -0.19864,0.23177 -0.33094,0.49636 -0.39687,0.79375 -0.62931,-0.58447 -1.20258,-1.20185 -1.71979,-1.85209 -0.24016,0.34132 -0.19606,0.69409 0.13229,1.05834 0.54716,0.5017 1.03222,1.03087 1.45521,1.5875 0.1764,0.26458 0.35277,0.52916 0.52916,0.79375 0.0347,0.1955 -0.009,0.3719 -0.13229,0.52916 -0.70972,-0.75398 -1.45936,-1.45954 -2.24896,-2.11666 -0.31011,0.11075 -0.5747,0.28715 -0.79375,0.52916 1.29257,0.60061 2.43909,1.39436 3.43959,2.38125 0.16449,0.29808 0.38497,0.56267 0.66146,0.79375 0.17647,1.05834 0.17647,2.11667 0,3.175 -1.17015,-1.28198 -1.91982,-2.78127 -2.24896,-4.49791 -0.21109,0.41743 -0.34338,0.85841 -0.39688,1.32291 -0.25222,-0.51731 -0.60499,-0.95826 -1.05833,-1.32291 -0.0441,0.1764 -0.0882,0.35277 -0.13229,0.52916 0.44153,0.59728 0.61793,1.21463 0.52916,1.85209 2.07164,1.32736 3.17421,3.17944 3.3073,5.55625 -1.5434,-2.02848 -3.08682,-4.05694 -4.63021,-6.08542 -0.29472,0.32359 -0.3388,0.67636 -0.13229,1.05833 1.10244,1.27882 2.20485,2.55765 3.30729,3.83646 -0.1764,0.1764 -0.35277,0.1764 -0.52917,0 -0.80301,-0.8917 -1.68494,-1.68545 -2.64583,-2.38125 -0.22006,-0.18195 -0.39645,-0.13784 -0.52917,0.13229 1.01907,1.23966 2.16562,2.3421 3.43958,3.3073 -0.46447,0.0372 -0.90545,-0.0951 -1.32291,-0.39688 -0.32047,0.20476 -0.32047,0.42524 0,0.66146 0.94464,0.39687 1.87068,0.79375 2.77812,1.19062 0.004,0.5215 -0.0844,1.05067 -0.26458,1.5875 -1.55006,-0.84455 -2.74069,-2.03517 -3.57188,-3.57187 -0.66645,0.18764 -0.66645,0.54041 0,1.05833 -0.50731,-0.007 -0.94826,-0.22775 -1.32291,-0.66146 -0.0882,0.1323 -0.1764,0.26459 -0.26459,0.39688 0.22225,0.46752 0.57505,0.82047 1.05834,1.05833 -0.12102,0.10954 -0.20921,0.24183 -0.26459,0.39688 0.91435,0.52546 1.8845,0.92234 2.91042,1.19062 1.31924,0.95885 1.8042,2.23758 1.45521,3.83646 -1.59134,-1.63565 -3.22294,-3.22315 -4.89479,-4.7625 -0.28647,0.22887 -0.33057,0.49345 -0.13229,0.79375 1.28405,1.29355 2.65107,2.48417 4.10104,3.57188 -1.34054,-0.44477 -2.57527,-1.15041 -3.70417,-2.11667 -0.3003,-0.19817 -0.56488,-0.15425 -0.79375,0.13229 1.69471,1.34329 3.45861,2.5781 5.29167,3.70417 0.26037,0.7747 0.34856,1.56845 0.26458,2.38125 -0.56113,0.0463 -1.09029,-0.0421 -1.5875,-0.26459 -0.28697,-0.55218 -0.72792,-0.90487 -1.32292,-1.05833 -0.0882,-0.26458 -0.26458,-0.44106 -0.52916,-0.52917 -0.26459,-0.44106 -0.61735,-0.79375 -1.05834,-1.05833 0.0193,-0.40402 -0.15708,-0.6686 -0.52916,-0.79375 -0.0422,-0.43735 -0.21863,-0.79004 -0.52917,-1.05833 -0.0882,-0.52917 -0.1764,-1.05834 -0.26458,-1.5875 0.0158,-2.38469 0.10395,-4.76581 0.26458,-7.14375 0,-0.44098 0,-0.88194 0,-1.32292 0.31417,-0.9117 0.49057,-1.88185 0.52917,-2.91042 0,-0.0882 0,-0.17639 0,-0.26458 0.33988,-0.81716 0.51625,-1.69913 0.52916,-2.64583 0.59876,-2.44367 1.39251,-4.82492 2.38125,-7.14375 0.74007,-0.60722 1.44564,-1.26868 2.11667,-1.98438 1.70021,-0.33983 3.11124,0.14523 4.23333,1.45521 z"
         id="path6" /><path
         style="clip-rule:evenodd;fill-rule:evenodd;stroke-width:0.264583;image-rendering:optimizeQuality;shape-rendering:geometricPrecision;text-rendering:geometricPrecision"
         fill="#958980"
         d="m 306.4082,127.25901 c 0.57389,0.48691 0.92658,1.10429 1.05834,1.85208 -0.55245,-0.48566 -0.90514,-1.10302 -1.05834,-1.85208 z"
         id="path7" /><path
         style="clip-rule:evenodd;fill-rule:evenodd;stroke-width:0.264583;image-rendering:optimizeQuality;shape-rendering:geometricPrecision;text-rendering:geometricPrecision"
         fill="#838434"
         d="m 312.22904,128.05276 c 4.70244,-0.37251 8.0981,1.56776 10.18646,5.82083 0.37703,3.59963 0.0683,7.1274 -0.92605,10.58334 -0.52122,0.74832 -1.00621,1.54199 -1.4552,2.38125 -0.7157,0.67098 -1.37716,1.37663 -1.98438,2.11666 -0.65722,0.72602 -1.45097,1.25519 -2.38125,1.5875 0.0556,-2.31907 0.32015,-4.61195 0.79375,-6.87916 0.49186,-0.44778 1.02103,-0.84466 1.5875,-1.19063 -0.35269,-0.17639 -0.35269,-0.35277 0,-0.52916 0.67284,-0.037 1.29037,-0.21334 1.85208,-0.52917 -0.4265,-0.19058 -0.82338,-0.14647 -1.19062,0.13229 -10e-4,-0.49435 0.13123,-0.97941 0.39687,-1.45521 -0.0881,-0.13229 -0.17647,-0.26458 -0.26458,-0.39687 -0.36433,0.47347 -0.62891,1.00264 -0.79375,1.5875 -0.21828,0.23434 -0.48286,0.32253 -0.79375,0.26458 -0.0537,-0.50017 0.1225,-0.89704 0.52917,-1.19062 -0.25109,-0.1633 -0.47149,-0.11922 -0.66146,0.13229 0.16457,-1.64351 0.60563,-3.23101 1.32292,-4.7625 0.20664,-0.38198 0.16245,-0.73475 -0.1323,-1.05834 -0.3212,1.00955 -0.71807,1.9797 -1.19062,2.91042 -0.0534,-0.4645 -0.18574,-0.90548 -0.39688,-1.32292 -0.28945,2.05119 -0.68632,4.07967 -1.19062,6.08542 -1.04458,-2.59239 -0.73581,-5.01772 0.92604,-7.27604 -0.32861,-0.43688 -0.54927,-0.92194 -0.66146,-1.45521 -0.18282,0.63267 -0.44741,0.63267 -0.79375,0 0.24289,1.15165 0.15478,2.2982 -0.26458,3.43958 -0.0614,-0.32742 -0.19368,-0.592 -0.39688,-0.79375 0,-1.14651 0,-2.29306 0,-3.43958 -0.0749,-0.20878 -0.20716,-0.38518 -0.39687,-0.52917 -0.0881,1.14652 -0.17648,2.29307 -0.26458,3.43959 -0.39291,-0.74076 -0.83371,-1.44632 -1.32292,-2.11667 -0.0442,0.0882 -0.0881,0.1764 -0.13229,0.26458 1.4986,2.60134 1.93966,5.33538 1.32291,8.20209 -0.98028,-1.86883 -1.72984,-3.8091 -2.24895,-5.82084 -0.0881,0.26459 -0.17648,0.52917 -0.26459,0.79375 -0.32173,-0.6514 -0.49794,-1.35696 -0.52916,-2.11666 -0.0815,-0.21381 -0.21379,-0.39018 -0.39688,-0.52917 -0.24474,0.30176 -0.4654,0.30176 -0.66146,0 -0.23151,-0.76758 -0.54028,-1.47312 -0.92604,-2.11667 0,-0.0882 0,-0.17639 0,-0.26458 0.0378,-0.4663 -0.0505,-0.90728 -0.26458,-1.32292 0.62336,-0.71077 1.24063,-1.41631 1.85208,-2.11666 0.66305,-0.33063 1.36869,-0.507 2.11667,-0.52917 z"
         id="path8" /><path
         style="clip-rule:evenodd;fill-rule:evenodd;stroke-width:0.264583;image-rendering:optimizeQuality;shape-rendering:geometricPrecision;text-rendering:geometricPrecision"
         fill="#737535"
         d="m 297.41237,124.87776 c 1.05262,0.52345 1.84637,1.3172 2.38125,2.38125 0.0882,0.1764 0.1764,0.35277 0.26458,0.52917 -0.98874,2.31883 -1.78249,4.70008 -2.38125,7.14375 -0.39989,0.80547 -0.57626,1.6874 -0.52916,2.64583 0,0.0882 0,0.1764 0,0.26458 -0.19093,0.11047 -0.32322,0.28687 -0.39688,0.52917 0.10073,-3.70559 1.02677,-7.18928 2.77813,-10.45104 -0.0441,-0.22048 -0.0882,-0.44098 -0.13229,-0.66146 -0.67123,-0.83119 -1.33268,-1.62494 -1.98438,-2.38125 z"
         id="path9" /><path
         style="clip-rule:evenodd;fill-rule:evenodd;stroke-width:0.264583;image-rendering:optimizeQuality;shape-rendering:geometricPrecision;text-rendering:geometricPrecision"
         fill="#707132"
         d="m 293.7082,129.90484 c -0.38158,0.56529 -0.69027,1.18264 -0.92604,1.85209 -0.0854,-1.41968 -0.21767,-2.83081 -0.39687,-4.23334 0.18759,-0.23918 0.45217,-0.32736 0.79375,-0.26458 -0.15055,1.01317 0.0258,1.89513 0.52916,2.64583 z"
         id="path10" /><path
         style="clip-rule:evenodd;fill-rule:evenodd;stroke-width:0.264583;image-rendering:optimizeQuality;shape-rendering:geometricPrecision;text-rendering:geometricPrecision"
         fill="#717232"
         d="m 292.91445,132.81526 c 0.36158,-1.12773 0.80257,-2.23017 1.32292,-3.30729 -0.0185,-0.20235 -0.10671,-0.33465 -0.26458,-0.39688 0.48408,-0.64309 0.74866,-0.59901 0.79375,0.1323 -0.70247,1.93108 -1.18756,3.91546 -1.45521,5.95312 -0.0478,-0.84524 -0.18005,-1.63899 -0.39688,-2.38125 z"
         id="path11" /><path
         style="clip-rule:evenodd;fill-rule:evenodd;stroke-width:0.264583;image-rendering:optimizeQuality;shape-rendering:geometricPrecision;text-rendering:geometricPrecision"
         fill="#545028"
         d="m 310.11237,128.58193 c -0.61145,0.70035 -1.22872,1.40589 -1.85208,2.11666 0.21405,0.41564 0.30242,0.85662 0.26458,1.32292 -0.40217,-0.63241 -0.66675,-1.33794 -0.79375,-2.11667 0.16325,0.0293 0.29554,0.11748 0.39688,0.26459 0.55721,-0.6926 1.21867,-1.22177 1.98437,-1.5875 z"
         id="path12" /><path
         style="clip-rule:evenodd;fill-rule:evenodd;stroke-width:0.264583;image-rendering:optimizeQuality;shape-rendering:geometricPrecision;text-rendering:geometricPrecision"
         fill="#784818"
         d="m 301.91029,135.46109 c -0.34158,-0.0628 -0.60616,0.0254 -0.79375,0.26459 -0.42299,-0.55663 -0.90805,-1.0858 -1.45521,-1.5875 -0.32835,-0.36425 -0.37245,-0.71702 -0.13229,-1.05834 0.51721,0.65024 1.09048,1.26762 1.71979,1.85209 0.0659,-0.29739 0.19823,-0.56198 0.39687,-0.79375 0.25186,0.40886 0.34005,0.84984 0.26459,1.32291 z"
         id="path13" /><path
         style="clip-rule:evenodd;fill-rule:evenodd;stroke-width:0.264583;image-rendering:optimizeQuality;shape-rendering:geometricPrecision;text-rendering:geometricPrecision"
         fill="#5e4f1f"
         d="m 292.1207,129.11109 c 0.30565,1.89307 0.34973,3.83334 0.1323,5.82084 -0.14981,0.58806 -0.37029,1.11723 -0.66146,1.5875 0.39576,-2.45139 0.57216,-4.92083 0.52916,-7.40834 z"
         id="path14" /><path
         style="clip-rule:evenodd;fill-rule:evenodd;stroke-width:0.264583;image-rendering:optimizeQuality;shape-rendering:geometricPrecision;text-rendering:geometricPrecision"
         fill="#5e5c28"
         d="m 296.08945,135.99026 c -0.0748,-0.20878 -0.20711,-0.38518 -0.39687,-0.52917 -0.26458,0.35277 -0.52917,0.70557 -0.79375,1.05834 -0.0441,-0.0882 -0.0882,-0.1764 -0.13229,-0.26459 0.34007,-0.66688 0.51644,-1.37244 0.52916,-2.11666 -0.0429,-0.53639 10e-4,-1.06556 0.1323,-1.5875 0.26458,-0.35277 0.52916,-0.35277 0.79375,0 0.0126,0.89365 -0.11973,1.77559 -0.39688,2.64583 0.92731,0.0514 1.01553,0.31594 0.26458,0.79375 z"
         id="path15" /><path
         style="clip-rule:evenodd;fill-rule:evenodd;stroke-width:0.264583;image-rendering:optimizeQuality;shape-rendering:geometricPrecision;text-rendering:geometricPrecision"
         fill="#6d4718"
         d="m 303.76237,130.16943 c -0.21934,1.8048 -0.35163,3.65688 -0.39687,5.55625 -0.0881,-0.1764 -0.17648,-0.35277 -0.26459,-0.52917 -0.0482,0.72133 -0.18044,1.42687 -0.39687,2.11667 -0.24474,-0.22672 -0.42119,-0.49131 -0.52917,-0.79375 0.41698,-0.72192 0.54928,-1.51567 0.39688,-2.38125 -0.69935,-0.39061 -1.27262,-0.91977 -1.7198,-1.5875 0.1764,-0.0882 0.35277,-0.1764 0.52917,-0.26459 -0.70488,-1.59154 -0.57258,-1.67976 0.39688,-0.26458 -0.0256,-0.73977 -0.24604,-1.44531 -0.66146,-2.11667 0.0882,-0.0882 0.1764,-0.17639 0.26458,-0.26458 0.56179,1.11157 1.04696,2.25809 1.45521,3.43958 0.0511,-1.38914 0.18336,-2.75616 0.39687,-4.10104 -0.22225,-0.44092 -0.0899,-0.485 0.39688,-0.13229 0.1307,0.43236 0.17462,0.87334 0.13229,1.32292 z"
         id="path16" /><path
         style="clip-rule:evenodd;fill-rule:evenodd;stroke-width:0.264583;image-rendering:optimizeQuality;shape-rendering:geometricPrecision;text-rendering:geometricPrecision"
         fill="#2d230e"
         d="m 290.00404,136.51943 c 0,0.26458 0,0.52916 0,0.79375 0.0173,0.11594 -0.0268,0.20415 -0.13229,0.26458 -0.18447,-0.5515 -0.49316,-0.99248 -0.92605,-1.32292 0,-0.17639 0,-0.35276 0,-0.52916 0.0894,-0.62283 0.22173,-1.24018 0.39688,-1.85209 0.26347,0.90194 0.48398,1.78391 0.66146,2.64584 z"
         id="path17" /><path
         style="clip-rule:evenodd;fill-rule:evenodd;stroke-width:0.264583;image-rendering:optimizeQuality;shape-rendering:geometricPrecision;text-rendering:geometricPrecision"
         fill="#623b13"
         d="m 304.8207,135.46109 c -0.40137,0.003 -0.71014,0.17918 -0.92604,0.52917 -0.1307,-0.43235 -0.17462,-0.87334 -0.13229,-1.32292 0.95594,-1.19678 1.79388,-2.5197 2.51354,-3.96875 0.17648,0.44099 0.17648,0.88194 0,1.32292 -0.3593,0.62429 -0.62388,1.24164 -0.79375,1.85208 0.35269,-0.35276 0.70565,-0.70556 1.05834,-1.05833 0.0442,0.13229 0.0881,0.26458 0.13229,0.39688 -0.57785,0.79682 -1.19512,1.54646 -1.85209,2.24895 z"
         id="path18" /><path
         style="clip-rule:evenodd;fill-rule:evenodd;stroke-width:0.264583;image-rendering:optimizeQuality;shape-rendering:geometricPrecision;text-rendering:geometricPrecision"
         fill="#b2b2ae"
         d="m 282.86029,127.52359 c 0.0882,0 0.1764,0 0.26458,0 -1.64213,3.7374 -1.9949,7.61797 -1.05833,11.64167 -0.23299,-0.62143 -0.49758,-1.06238 -0.79375,-1.32292 -0.30549,-1.80469 -0.3496,-3.65677 -0.13229,-5.55625 0.40703,-1.30915 0.7598,-2.63207 1.05833,-3.96875 0.0997,-0.3816 0.32017,-0.64619 0.66146,-0.79375 z"
         id="path19" /><path
         style="clip-rule:evenodd;fill-rule:evenodd;stroke-width:0.264583;image-rendering:optimizeQuality;shape-rendering:geometricPrecision;text-rendering:geometricPrecision"
         fill="#9fa047"
         d="m 290.79779,139.42984 c -0.26763,-0.72816 -0.53221,-1.43372 -0.79375,-2.11666 0,-0.26459 0,-0.52917 0,-0.79375 -0.0347,-0.1955 0.009,-0.3719 0.13229,-0.52917 0.2268,1.08379 0.53546,2.14212 0.92604,3.175 -0.0327,0.16052 -0.12089,0.24871 -0.26458,0.26458 z"
         id="path20" /><path
         style="clip-rule:evenodd;fill-rule:evenodd;stroke-width:0.264583;image-rendering:optimizeQuality;shape-rendering:geometricPrecision;text-rendering:geometricPrecision"
         fill="#744818"
         d="m 301.6457,136.51943 c 0.49544,0.36944 0.58362,0.81042 0.26459,1.32291 -1.0005,-0.98689 -2.14702,-1.78064 -3.43959,-2.38125 0.21905,-0.24201 0.48364,-0.41841 0.79375,-0.52916 0.7896,0.65712 1.53924,1.36268 2.24896,2.11666 0.12285,-0.15726 0.16696,-0.33366 0.13229,-0.52916 z"
         id="path21" /><path
         style="clip-rule:evenodd;fill-rule:evenodd;stroke-width:0.264583;image-rendering:optimizeQuality;shape-rendering:geometricPrecision;text-rendering:geometricPrecision"
         fill="#161206"
         d="m 314.3457,132.81526 c 0,1.14652 0,2.29307 0,3.43958 -0.36459,0.54521 -0.36459,-0.60131 0,-3.43958 z"
         id="path22" /><path
         style="clip-rule:evenodd;fill-rule:evenodd;stroke-width:0.264583;image-rendering:optimizeQuality;shape-rendering:geometricPrecision;text-rendering:geometricPrecision"
         fill="#bbb650"
         d="m 297.67695,134.93193 c -0.0129,0.9467 -0.18928,1.82867 -0.52916,2.64583 -0.0471,-0.95843 0.12927,-1.84036 0.52916,-2.64583 z"
         id="path23" /><path
         style="clip-rule:evenodd;fill-rule:evenodd;stroke-width:0.264583;image-rendering:optimizeQuality;shape-rendering:geometricPrecision;text-rendering:geometricPrecision"
         fill="#302c13"
         d="m 308.52487,132.28609 c 0.38576,0.64355 0.69453,1.34909 0.92604,2.11667 0.19606,0.30176 0.41672,0.30176 0.66146,0 0.18309,0.13899 0.31538,0.31536 0.39688,0.52917 0.0312,0.7597 0.20743,1.46526 0.52916,2.11666 0.0881,-0.26458 0.17648,-0.52916 0.26459,-0.79375 0.51911,2.01174 1.26867,3.95201 2.24895,5.82084 0.1397,0.3565 0.18389,0.70927 0.1323,1.05833 -0.39265,-0.78552 -0.78952,-1.57927 -1.19063,-2.38125 -0.21828,-0.23434 -0.48286,-0.32253 -0.79375,-0.26458 -0.85566,-0.39521 -0.94377,-0.88027 -0.26458,-1.45521 -0.48578,-0.93075 -0.97102,-1.85679 -1.45521,-2.77813 0.0749,1.76303 0.25135,3.52693 0.52917,5.29167 0.21748,1.9875 0.1733,3.92777 -0.1323,5.82083 0.0852,-1.54992 -0.003,-3.04924 -0.26458,-4.49791 -0.12832,-3.59122 -0.65749,-7.11901 -1.5875,-10.58334 z"
         id="path24" /><path
         style="clip-rule:evenodd;fill-rule:evenodd;stroke-width:0.264583;image-rendering:optimizeQuality;shape-rendering:geometricPrecision;text-rendering:geometricPrecision"
         fill="#a6a699"
         d="m 321.48945,144.45693 c 0.99431,-3.45594 1.30308,-6.98371 0.92605,-10.58334 -2.08836,-4.25307 -5.48402,-6.19334 -10.18646,-5.82083 1.74281,-0.71191 3.50679,-0.66783 5.29166,0.13229 5.23584,2.89791 6.95564,7.26353 5.15938,13.09688 -0.22172,1.15353 -0.6186,2.21186 -1.19063,3.175 z"
         id="path25" /><path
         style="clip-rule:evenodd;fill-rule:evenodd;stroke-width:0.264583;image-rendering:optimizeQuality;shape-rendering:geometricPrecision;text-rendering:geometricPrecision"
         fill="#4f411a"
         d="m 292.38529,127.52359 c 0.1792,1.40253 0.31149,2.81366 0.39687,4.23334 0.23577,-0.66945 0.54446,-1.2868 0.92604,-1.85209 0.0151,-0.29342 0.10325,-0.558 0.26459,-0.79375 0.15787,0.0622 0.24609,0.19453 0.26458,0.39688 -0.52035,1.07712 -0.96134,2.17956 -1.32292,3.30729 -0.26635,2.28706 -0.31043,4.5801 -0.13229,6.87917 0.0882,-1.32292 0.1764,-2.64584 0.26459,-3.96875 0.0882,0.88193 0.17639,1.7639 0.26458,2.64583 0.53941,-1.49468 1.20086,-2.90578 1.98437,-4.23333 -0.0127,0.74422 -0.18909,1.44978 -0.52916,2.11666 0.0441,0.0882 0.0882,0.1764 0.13229,0.26459 0.26458,-0.35277 0.52917,-0.70557 0.79375,-1.05834 0.18976,0.14399 0.32205,0.32039 0.39687,0.52917 -0.44098,0.70557 -0.88193,1.4111 -1.32291,2.11667 -0.19093,-0.11047 -0.32322,-0.28686 -0.39688,-0.52917 -1.53355,3.65959 -1.93042,7.45194 -1.19062,11.37708 -0.0624,0.82259 0.0258,1.61634 0.26458,2.38125 -0.0622,3.05938 0.11417,6.10209 0.52917,9.12813 -0.0441,0.74956 -0.0882,1.49939 -0.13229,2.24896 -0.29441,0.21299 -0.60309,0.38946 -0.92605,0.52916 -0.52048,0.0632 -1.00554,-0.0249 -1.4552,-0.26458 0.16713,-4.69053 0.12303,-9.36493 -0.1323,-14.02292 0.0854,-1.63777 -0.003,-3.22527 -0.26458,-4.7625 0,-0.44098 0,-0.88193 0,-1.32291 0.39087,0.98782 0.61135,2.04615 0.66146,3.175 0.21728,5.39141 0.17317,10.77119 -0.13229,16.13958 0.0882,0.0881 0.1764,0.17648 0.26458,0.26458 0.20667,-0.32517 0.33896,-0.67786 0.39688,-1.05833 0.17639,-5.11519 0.17639,-10.23064 0,-15.34583 -0.27864,-2.25994 -0.7637,-4.46479 -1.45521,-6.61459 0.14369,-0.0159 0.23188,-0.10406 0.26458,-0.26458 -0.39058,-1.03288 -0.69924,-2.09121 -0.92604,-3.175 -0.12285,0.15727 -0.16695,0.33367 -0.13229,0.52917 -0.17748,-0.86193 -0.39799,-1.7439 -0.66146,-2.64584 -0.17515,0.61191 -0.30745,1.22926 -0.39688,1.85209 -0.81904,-1.30625 -1.43639,-2.71738 -1.85208,-4.23334 0.37849,0.021 0.73126,-0.0673 1.05833,-0.26458 0.55238,0.62571 1.25794,0.8903 2.11667,0.79375 -0.0353,2.0809 0.27332,4.10938 0.92604,6.08542 0.21511,-0.51216 0.3474,-1.04132 0.39688,-1.5875 0.29117,-0.47027 0.51165,-0.99944 0.66146,-1.5875 0.21743,-1.9875 0.17335,-3.92777 -0.1323,-5.82084 -0.078,-0.59144 0.0102,-1.12061 0.26459,-1.5875 z"
         id="path26" /><path
         style="clip-rule:evenodd;fill-rule:evenodd;stroke-width:0.264583;image-rendering:optimizeQuality;shape-rendering:geometricPrecision;text-rendering:geometricPrecision"
         fill="#a0a349"
         d="m 287.88737,132.02151 c 0.15261,-0.33689 0.32901,-0.33689 0.52917,0 0.26053,0.42289 0.30464,0.86387 0.13229,1.32292 -0.20024,-0.48011 -0.42074,-0.92107 -0.66146,-1.32292 z"
         id="path27" /><path
         style="clip-rule:evenodd;fill-rule:evenodd;stroke-width:0.264583;image-rendering:optimizeQuality;shape-rendering:geometricPrecision;text-rendering:geometricPrecision"
         fill="#4b3c19"
         d="m 314.3457,132.81526 c -0.36459,2.83827 -0.36459,3.98479 0,3.43958 0.2032,0.20175 0.3355,0.46633 0.39688,0.79375 0.41936,-1.14138 0.50747,-2.28793 0.26458,-3.43958 0.34634,0.63267 0.61093,0.63267 0.79375,0 0.11219,0.53327 0.33285,1.01833 0.66146,1.45521 -1.66185,2.25832 -1.97062,4.68365 -0.92604,7.27604 0.5043,-2.00575 0.90117,-4.03423 1.19062,-6.08542 0.21114,0.41744 0.34343,0.85842 0.39688,1.32292 0.47255,-0.93072 0.86942,-1.90087 1.19062,-2.91042 0.29475,0.32359 0.33894,0.67636 0.1323,1.05834 -0.71729,1.53149 -1.15835,3.11899 -1.32292,4.7625 0.18997,-0.25151 0.41037,-0.29559 0.66146,-0.13229 -0.40667,0.29358 -0.58288,0.69045 -0.52917,1.19062 0.31089,0.0579 0.57547,-0.0302 0.79375,-0.26458 0.16484,-0.58486 0.42942,-1.11403 0.79375,-1.5875 0.0881,0.13229 0.17648,0.26458 0.26458,0.39687 -0.26564,0.4758 -0.39793,0.96086 -0.39687,1.45521 0.36724,-0.27876 0.76412,-0.32287 1.19062,-0.13229 -0.56171,0.31583 -1.17924,0.4922 -1.85208,0.52917 -0.35269,0.17639 -0.35269,0.35277 0,0.52916 -0.56647,0.34597 -1.09564,0.74285 -1.5875,1.19063 -0.4736,2.26721 -0.73819,4.56009 -0.79375,6.87916 0.0945,3.92748 0.0945,7.80812 0,11.64167 -0.67574,0.23495 -1.38139,0.32306 -2.11667,0.26458 -0.29818,-3.92615 -0.29818,-7.8949 0,-11.90625 0,-0.17647 0,-0.35268 0,-0.52916 0.0439,-1.94231 0,-3.8825 -0.13229,-5.82084 -0.50826,-1.28037 -1.08161,-2.51507 -1.71979,-3.70416 0.31089,-0.058 0.57547,0.0302 0.79375,0.26458 0.40111,0.80198 0.79798,1.59573 1.19063,2.38125 0.0516,-0.34906 0.007,-0.70183 -0.1323,-1.05833 0.61675,-2.86671 0.17569,-5.60075 -1.32291,-8.20209 0.0442,-0.0882 0.0881,-0.17639 0.13229,-0.26458 0.48921,0.67035 0.93001,1.37591 1.32292,2.11667 0.0881,-1.14652 0.17647,-2.29307 0.26458,-3.43959 0.18971,0.14399 0.322,0.32039 0.39687,0.52917 z"
         id="path28" /><path
         style="clip-rule:evenodd;fill-rule:evenodd;stroke-width:0.264583;image-rendering:optimizeQuality;shape-rendering:geometricPrecision;text-rendering:geometricPrecision"
         fill="#848534"
         d="m 311.69987,140.48818 c 0.63818,1.18909 1.21153,2.42379 1.71979,3.70416 0.13229,1.93834 0.17622,3.87853 0.13229,5.82084 -1.8034,-0.0426 -2.86173,-0.92472 -3.175,-2.64584 0.3056,-1.89306 0.34978,-3.83333 0.1323,-5.82083 -0.27782,-1.76474 -0.45429,-3.52864 -0.52917,-5.29167 0.48419,0.92134 0.96943,1.84738 1.45521,2.77813 -0.67919,0.57494 -0.59108,1.06 0.26458,1.45521 z"
         id="path29" /><path
         style="clip-rule:evenodd;fill-rule:evenodd;stroke-width:0.264583;image-rendering:optimizeQuality;shape-rendering:geometricPrecision;text-rendering:geometricPrecision"
         fill="#5e5e5d"
         d="m 282.06654,139.16526 c 0.1764,0.52917 0.35277,1.05833 0.52916,1.5875 0,0.1764 0,0.35277 0,0.52917 -0.69704,-1.03047 -1.13802,-2.17699 -1.32291,-3.43959 0.29617,0.26054 0.56076,0.70149 0.79375,1.32292 z"
         id="path30" /><path
         style="clip-rule:evenodd;fill-rule:evenodd;stroke-width:0.264583;image-rendering:optimizeQuality;shape-rendering:geometricPrecision;text-rendering:geometricPrecision"
         fill="#87883d"
         d="m 294.76654,138.10693 c -0.89921,2.09918 -1.25201,4.30403 -1.05834,6.61458 0.002,1.33641 0.17818,2.57096 0.52917,3.70417 0,0.17648 -0.0882,0.26458 -0.26458,0.26458 -0.23575,0.1614 -0.50033,0.2495 -0.79375,0.26458 -0.7398,-3.92514 -0.34293,-7.71749 1.19062,-11.37708 0.0737,0.24231 0.20595,0.4187 0.39688,0.52917 z"
         id="path31" /><path
         style="clip-rule:evenodd;fill-rule:evenodd;stroke-width:0.264583;image-rendering:optimizeQuality;shape-rendering:geometricPrecision;text-rendering:geometricPrecision"
         fill="#6a4116"
         d="m 305.87904,145.25068 c 0.0455,-0.26236 -0.0429,-0.43876 -0.26459,-0.52917 0.34661,-0.43595 0.6993,-0.87693 1.05834,-1.32292 -0.44768,-0.18542 -0.88847,-0.0972 -1.32292,0.26459 -0.68739,-0.25723 -0.68739,-0.52181 0,-0.79375 0.52493,0.0309 0.96573,-0.1455 1.32292,-0.52917 0.18309,0.13899 0.31538,0.31536 0.39687,0.52917 0.25215,-0.51732 0.60511,-0.95827 1.05834,-1.32292 0.0442,0.1764 0.0881,0.35277 0.13229,0.52917 -0.59611,1.21256 -1.38986,2.27089 -2.38125,3.175 z"
         id="path32" /><path
         style="clip-rule:evenodd;fill-rule:evenodd;stroke-width:0.264583;image-rendering:optimizeQuality;shape-rendering:geometricPrecision;text-rendering:geometricPrecision"
         fill="#464921"
         d="m 296.61862,140.75276 c 0,0.44098 0,0.88194 0,1.32292 -0.36491,1.61845 -0.54131,3.29414 -0.52917,5.02708 -0.0882,0 -0.17639,0 -0.26458,0 -0.0434,-2.12765 0.0889,-4.24431 0.39688,-6.35 0.21637,-1.40062 0.34866,-1.40062 0.39687,0 z"
         id="path33" /><path
         style="clip-rule:evenodd;fill-rule:evenodd;stroke-width:0.264583;image-rendering:optimizeQuality;shape-rendering:geometricPrecision;text-rendering:geometricPrecision"
         fill="#dc7324"
         d="m 305.61445,144.72151 c -0.5154,0.8259 -1.08876,1.61952 -1.71979,2.38125 -0.17647,-1.05833 -0.17647,-2.11667 0,-3.175 0.44953,-0.23974 0.93478,-0.32792 1.45521,-0.26458 0.43445,-0.36182 0.87524,-0.45001 1.32292,-0.26459 -0.35904,0.44599 -0.71173,0.88697 -1.05834,1.32292 z"
         id="path34" /><path
         style="clip-rule:evenodd;fill-rule:evenodd;stroke-width:0.264583;image-rendering:optimizeQuality;shape-rendering:geometricPrecision;text-rendering:geometricPrecision"
         fill="#523a16"
         d="m 303.76237,130.16943 c 0,1.49931 0,2.9986 0,4.49791 -0.0423,0.44958 0.002,0.89057 0.13229,1.32292 0.2159,-0.34999 0.52467,-0.52636 0.92604,-0.52917 0.38497,0.11383 0.73766,0.11383 1.05834,0 -0.5342,0.60794 -1.19565,1.04889 -1.98438,1.32292 -0.17647,0.97015 -0.17647,1.94027 0,2.91042 0.61728,-0.70557 1.23481,-1.4111 1.85209,-2.11667 0.11588,-0.76094 0.38047,-1.4665 0.79375,-2.11667 0.0659,0.2974 0.19817,0.56198 0.39687,0.79375 0.31406,-0.36877 0.49054,-0.32467 0.52917,0.1323 -0.32332,0.53811 -0.58791,1.11138 -0.79375,1.71979 -2.07328,0.69884 -2.99932,2.10997 -2.77813,4.23333 1.4994,-1.7639 2.99853,-3.52777 4.49792,-5.29167 0.16801,0.565 0.0796,1.09416 -0.26458,1.5875 -0.88609,0.84191 -1.72403,1.72387 -2.51355,2.64584 0.0442,0.0882 0.0881,0.1764 0.1323,0.26458 0.88847,-0.75631 1.81451,-1.46185 2.77812,-2.11667 0.0881,0.0882 0.17648,0.1764 0.26458,0.26459 -1.15199,1.06413 -2.29843,2.12246 -3.43958,3.175 -0.68739,0.27194 -0.68739,0.53652 0,0.79375 -0.52043,-0.0633 -1.00568,0.0248 -1.45521,0.26458 -0.17647,1.05833 -0.17647,2.11667 0,3.175 0.63103,-0.76173 1.20439,-1.55535 1.71979,-2.38125 0.22173,0.0904 0.3101,0.26681 0.26459,0.52917 -0.21246,0.24426 -0.25665,0.50879 -0.13229,0.79375 0.87656,-0.65582 1.7145,-1.36139 2.51354,-2.11667 0.27014,0.13272 0.31432,0.30911 0.13229,0.52917 -0.37306,0.34065 -0.76994,0.64934 -1.19063,0.92604 0.45641,-0.10814 0.89747,-0.0641 1.32292,0.13229 -1.66132,0.98531 -3.2049,2.13175 -4.63021,3.43958 -0.17647,0.79375 -0.17647,1.5875 0,2.38125 1.57904,-1.84388 3.25464,-3.60785 5.02709,-5.29166 0.17647,0.35269 0.17647,0.70564 0,1.05833 -1.11099,1.19962 -2.30161,2.30214 -3.57188,3.30729 0.37253,0.0833 0.72522,-0.005 1.05833,-0.26458 0.86017,-0.73501 1.74202,-1.21999 2.64584,-1.45521 -1.73355,1.28799 -3.45334,2.61091 -5.15938,3.96875 -0.13176,0.87762 -0.17594,1.75948 -0.13229,2.64583 0,2.99853 0,5.99731 0,8.99584 -0.52043,0.0632 -1.00568,-0.0249 -1.45521,-0.26459 -0.13224,-2.82072 -0.17634,-5.64303 -0.13229,-8.46666 0.084,-0.8128 -0.004,-1.60655 -0.26458,-2.38125 -1.83306,-1.12607 -3.59696,-2.36088 -5.29167,-3.70417 0.22887,-0.28654 0.49345,-0.33046 0.79375,-0.13229 1.1289,0.96626 2.36363,1.6719 3.70417,2.11667 -1.44997,-1.08771 -2.81699,-2.27833 -4.10104,-3.57188 -0.19828,-0.3003 -0.15418,-0.56488 0.13229,-0.79375 1.67185,1.53935 3.30345,3.12685 4.89479,4.7625 0.34899,-1.59888 -0.13597,-2.87761 -1.45521,-3.83646 -1.02592,-0.26828 -1.99607,-0.66516 -2.91042,-1.19062 0.0554,-0.15505 0.14357,-0.28734 0.26459,-0.39688 -0.48329,-0.23786 -0.83609,-0.59081 -1.05834,-1.05833 0.0882,-0.13229 0.1764,-0.26458 0.26459,-0.39688 0.37465,0.43371 0.8156,0.65419 1.32291,0.66146 -0.66645,-0.51792 -0.66645,-0.87069 0,-1.05833 0.83119,1.5367 2.02182,2.72732 3.57188,3.57187 0.18021,-0.53683 0.26829,-1.066 0.26458,-1.5875 -0.90744,-0.39687 -1.83348,-0.79375 -2.77812,-1.19062 -0.32047,-0.23622 -0.32047,-0.4567 0,-0.66146 0.41746,0.30176 0.85844,0.43405 1.32291,0.39688 -1.27396,-0.9652 -2.42051,-2.06764 -3.43958,-3.3073 0.13272,-0.27013 0.30911,-0.31424 0.52917,-0.13229 0.96089,0.6958 1.84282,1.48955 2.64583,2.38125 0.1764,0.1764 0.35277,0.1764 0.52917,0 -1.10244,-1.27881 -2.20485,-2.55764 -3.30729,-3.83646 -0.20651,-0.38197 -0.16243,-0.73474 0.13229,-1.05833 1.54339,2.02848 3.08681,4.05694 4.63021,6.08542 -0.13309,-2.37681 -1.23566,-4.22889 -3.3073,-5.55625 0.0888,-0.63746 -0.0876,-1.25481 -0.52916,-1.85209 0.0441,-0.17639 0.0882,-0.35276 0.13229,-0.52916 0.45334,0.36465 0.80611,0.8056 1.05833,1.32291 0.0535,-0.4645 0.18579,-0.90548 0.39688,-1.32291 0.32914,1.71664 1.07881,3.21593 2.24896,4.49791 0.17647,-1.05833 0.17647,-2.11666 0,-3.175 -0.27649,-0.23108 -0.49697,-0.49567 -0.66146,-0.79375 0.31903,-0.51249 0.23085,-0.95347 -0.26459,-1.32291 -0.17639,-0.26459 -0.35276,-0.52917 -0.52916,-0.79375 0.18759,-0.23919 0.45217,-0.32737 0.79375,-0.26459 0.0882,0.35277 0.1764,0.70557 0.26458,1.05834 0.10798,0.30244 0.28443,0.56703 0.52917,0.79375 0.21643,-0.6898 0.34872,-1.39534 0.39687,-2.11667 0.0881,0.1764 0.17648,0.35277 0.26459,0.52917 0.0452,-1.89937 0.17753,-3.75145 0.39687,-5.55625 z"
         id="path35" /><path
         style="clip-rule:evenodd;fill-rule:evenodd;stroke-width:0.264583;image-rendering:optimizeQuality;shape-rendering:geometricPrecision;text-rendering:geometricPrecision"
         fill="#8f8f89"
         d="m 282.5957,140.75276 c 0.77198,1.29196 1.52162,2.61488 2.24896,3.96875 0.97999,0.93557 1.90604,1.90553 2.77813,2.91042 -2.43419,-1.51739 -4.10988,-3.63405 -5.02709,-6.35 0,-0.1764 0,-0.35277 0,-0.52917 z"
         id="path36" /><path
         style="clip-rule:evenodd;fill-rule:evenodd;stroke-width:0.264583;image-rendering:optimizeQuality;shape-rendering:geometricPrecision;text-rendering:geometricPrecision"
         fill="#c28a3c"
         d="m 296.61862,142.07568 c -0.16063,2.37794 -0.24881,4.75906 -0.26458,7.14375 -0.25747,-0.6477 -0.34565,-1.35335 -0.26459,-2.11667 -0.0121,-1.73294 0.16426,-3.40863 0.52917,-5.02708 z"
         id="path37" /><path
         style="clip-rule:evenodd;fill-rule:evenodd;stroke-width:0.264583;image-rendering:optimizeQuality;shape-rendering:geometricPrecision;text-rendering:geometricPrecision"
         fill="#867e78"
         d="m 295.82487,147.10276 c 0.0882,0 0.1764,0 0.26458,0 -0.0811,0.76332 0.007,1.46897 0.26459,2.11667 0.0882,0.52916 0.1764,1.05833 0.26458,1.5875 -0.67085,-1.01997 -0.93543,-2.16641 -0.79375,-3.43959 0,-0.0881 0,-0.17647 0,-0.26458 z"
         id="path38" /><path
         style="clip-rule:evenodd;fill-rule:evenodd;stroke-width:0.264583;image-rendering:optimizeQuality;shape-rendering:geometricPrecision;text-rendering:geometricPrecision"
         fill="#88887c"
         d="m 287.62279,147.63193 c 0.66254,0.28681 1.27989,0.6395 1.85208,1.05833 -0.84182,-0.0222 -1.45918,-0.37491 -1.85208,-1.05833 z"
         id="path39" /><path
         style="clip-rule:evenodd;fill-rule:evenodd;stroke-width:0.264583;image-rendering:optimizeQuality;shape-rendering:geometricPrecision;text-rendering:geometricPrecision"
         fill="#b9b8ad"
         d="m 321.48945,144.45693 c -0.45137,2.03782 -1.59781,3.53721 -3.43958,4.49791 0.60722,-0.74003 1.26868,-1.44568 1.98438,-2.11666 0.44899,-0.83926 0.93398,-1.63293 1.4552,-2.38125 z"
         id="path40" /><path
         style="clip-rule:evenodd;fill-rule:evenodd;stroke-width:0.264583;image-rendering:optimizeQuality;shape-rendering:geometricPrecision;text-rendering:geometricPrecision"
         fill="#8b8842"
         d="m 291.06237,144.19234 c 0.26183,1.53723 0.35002,3.12473 0.26458,4.7625 -0.67714,0.0799 -1.2945,-0.008 -1.85208,-0.26458 0.52917,0 1.05833,0 1.5875,0 0,-1.49939 0,-2.99852 0,-4.49792 z"
         id="path41" /><path
         style="clip-rule:evenodd;fill-rule:evenodd;stroke-width:0.264583;image-rendering:optimizeQuality;shape-rendering:geometricPrecision;text-rendering:geometricPrecision"
         fill="#615327"
         d="m 310.11237,142.86943 c 0.26167,1.44867 0.34978,2.94799 0.26458,4.49791 0.31327,1.72112 1.3716,2.60324 3.175,2.64584 0,0.17648 0,0.35269 0,0.52916 -0.5461,-0.0495 -1.07526,-0.18176 -1.5875,-0.39687 -0.59107,-0.46302 -1.20861,-0.8599 -1.85208,-1.19063 0,-2.02856 0,-4.05693 0,-6.08541 z"
         id="path42" /><path
         style="clip-rule:evenodd;fill-rule:evenodd;stroke-width:0.264583;image-rendering:optimizeQuality;shape-rendering:geometricPrecision;text-rendering:geometricPrecision"
         fill="#3c2e11"
         d="m 288.9457,136.25484 c 0.43289,0.33044 0.74158,0.77142 0.92605,1.32292 0.10551,-0.0604 0.14959,-0.14864 0.13229,-0.26458 0.26154,0.68294 0.52612,1.3885 0.79375,2.11666 0.69151,2.1498 1.17657,4.35465 1.45521,6.61459 0.17639,5.11519 0.17639,10.23064 0,15.34583 -0.0579,0.38047 -0.19021,0.73316 -0.39688,1.05833 -0.0882,-0.0881 -0.1764,-0.17647 -0.26458,-0.26458 0.30546,-5.36839 0.34957,-10.74817 0.13229,-16.13958 -0.0501,-1.12885 -0.27059,-2.18718 -0.66146,-3.175 -0.82296,-2.13778 -1.5285,-4.34266 -2.11667,-6.61459 z"
         id="path43" /><path
         style="clip-rule:evenodd;fill-rule:evenodd;stroke-width:0.264583;image-rendering:optimizeQuality;shape-rendering:geometricPrecision;text-rendering:geometricPrecision"
         fill="#79614f"
         d="m 296.61862,150.80693 c 0.31054,0.26829 0.48694,0.62098 0.52917,1.05833 -0.42445,-0.20823 -0.60084,-0.56092 -0.52917,-1.05833 z"
         id="path44" /><path
         style="clip-rule:evenodd;fill-rule:evenodd;stroke-width:0.264583;image-rendering:optimizeQuality;shape-rendering:geometricPrecision;text-rendering:geometricPrecision"
         fill="#8f7766"
         d="m 297.14779,151.86526 c 0.37208,0.12515 0.54848,0.38973 0.52916,0.79375 -0.37208,-0.12515 -0.54848,-0.38973 -0.52916,-0.79375 z"
         id="path45" /><path
         style="clip-rule:evenodd;fill-rule:evenodd;stroke-width:0.264583;image-rendering:optimizeQuality;shape-rendering:geometricPrecision;text-rendering:geometricPrecision"
         fill="#6e6056"
         d="m 297.67695,152.65901 c 0.44099,0.26458 0.79375,0.61727 1.05834,1.05833 -0.61735,-0.0881 -0.97015,-0.44106 -1.05834,-1.05833 z"
         id="path46" /><path
         style="clip-rule:evenodd;fill-rule:evenodd;stroke-width:0.264583;image-rendering:optimizeQuality;shape-rendering:geometricPrecision;text-rendering:geometricPrecision"
         fill="#896145"
         d="m 299.26445,154.24651 c 0.595,0.15346 1.03595,0.50615 1.32292,1.05833 -0.59499,-0.15345 -1.03595,-0.50614 -1.32292,-1.05833 z"
         id="path47" /><path
         style="clip-rule:evenodd;fill-rule:evenodd;stroke-width:0.264583;image-rendering:optimizeQuality;shape-rendering:geometricPrecision;text-rendering:geometricPrecision"
         fill="#adadab"
         d="m 293.97279,148.69026 c 0.0234,2.73659 0.11155,5.47053 0.26458,8.20208 -0.24873,-1.85393 -0.51332,-3.70601 -0.79375,-5.55625 -0.23879,-0.76491 -0.327,-1.55866 -0.26458,-2.38125 0.29342,-0.0151 0.558,-0.10318 0.79375,-0.26458 z"
         id="path48" /><path
         style="clip-rule:evenodd;fill-rule:evenodd;stroke-width:0.264583;image-rendering:optimizeQuality;shape-rendering:geometricPrecision;text-rendering:geometricPrecision"
         fill="#e2e1e0"
         d="m 293.44362,151.33609 c 0.28043,1.85024 0.54502,3.70232 0.79375,5.55625 0.54092,2.06137 0.6291,4.17804 0.26458,6.35 -0.56702,0.33179 -1.09619,0.33179 -1.5875,0 0.32296,-0.1397 0.63164,-0.31617 0.92605,-0.52916 0.0441,-0.74957 0.0882,-1.4994 0.13229,-2.24896 -0.415,-3.02604 -0.5914,-6.06875 -0.52917,-9.12813 z"
         id="path49" /><path
         style="clip-rule:evenodd;fill-rule:evenodd;stroke-width:0.264583;image-rendering:optimizeQuality;shape-rendering:geometricPrecision;text-rendering:geometricPrecision"
         fill="#88847d"
         d="m 315.66862,162.18401 c 0.004,0.52493 -0.26035,0.78952 -0.79375,0.79375 -0.50853,-0.0796 -0.94932,-0.25585 -1.32292,-0.52917 0.73528,0.0585 1.44093,-0.0296 2.11667,-0.26458 z"
         id="path50" /></g></g></svg>
